<svg width="202.000000" height="202.000000" viewBox="0 0 202 202" fill="none" xmlns="http://www.w3.org/2000/svg" xmlns:xlink="http://www.w3.org/1999/xlink">
	<desc>
			Created with Pixso.
	</desc>
	<defs>
		<linearGradient x1="-101.000000" y1="101.000000" x2="101.000000" y2="101.000000" id="paint_linear_0_10487_0" gradientUnits="userSpaceOnUse">
			<stop stop-color="#5D0202" stop-opacity="0.000000"/>
			<stop offset="1.000000" stop-color="#5D0202" stop-opacity="0.498039"/>
		</linearGradient>
	</defs>
	<g opacity="0.202683" style="mix-blend-mode:normal">
		<circle id="Oval Copy 3" r="101.000000" transform="matrix(-6.12323e-17 -1 -1 6.12323e-17 101 101)" fill="url(#paint_linear_0_10487_0)" fill-opacity="1.000000"/>
		<circle id="Oval Copy 3" r="101.000000" transform="matrix(-6.12323e-17 -1 -1 6.12323e-17 101 101)" stroke="#979797" stroke-opacity="0" stroke-width="0.000000"/>
	</g>
	<path id="Path" d="M173.22 39.48C172.23 39.43 171.23 39.57 170.28 39.88C168.88 40.5 167.52 43.77 166.55 48.91C165.7 53.36 165.34 57.89 165.46 62.42C165.49 63.23 165.9 63.99 166.58 64.44C170.94 67.55 185.72 63.75 187.28 63.33C188.03 61.91 194.84 48.53 191.49 44.93C188.54 41.74 178.64 39.48 173.22 39.48Z" fill="#FFFFFF" fill-opacity="1.000000" fill-rule="nonzero"/>
	<path id="Shape" d="M172.391 66.2722C169.834 66.2722 167.569 65.918 166.212 64.9363C165.379 64.3762 164.864 63.4529 164.824 62.4509C164.457 55.4419 166.405 40.84 170.033 39.2866C173.661 37.7332 188.079 40.3429 191.962 44.4936C195.827 48.625 188.194 63.0004 187.798 63.7462L187.793 63.7557C187.752 63.8347 187.68 63.8931 187.594 63.9173C187.115 64.0291 178.82 66.2722 172.391 66.2722ZM170.288 39.8831C171.234 39.5702 172.23 39.4353 173.225 39.4854C178.645 39.4854 188.54 41.7472 191.49 44.9347C194.844 48.5324 188.036 61.9103 187.289 63.3394C185.721 63.7557 170.941 67.5522 166.585 64.4454C165.909 63.9909 165.492 63.2397 165.465 62.426C165.339 57.8972 165.705 53.3681 166.554 48.9176C167.525 43.779 168.888 40.5044 170.288 39.8831Z" clip-rule="evenodd" fill="#231F20" fill-opacity="1.000000" fill-rule="evenodd"/>
	<path id="Path" d="M131.43 147.08C141.81 142.51 148.84 132.62 149.72 121.33L139.42 110.28L125.27 137.57L131.43 147.08Z" fill="#FFFFFF" fill-opacity="1.000000" fill-rule="nonzero"/>
	<path id="Path" d="M131.43 147.4C131.28 147.4 131.15 147.29 131.13 147.14C131.1 146.99 131.18 146.84 131.32 146.78C141.51 142.24 148.43 132.54 149.4 121.44L139.5 110.83L125.56 137.72C125.47 137.85 125.29 137.9 125.14 137.83C125 137.75 124.93 137.58 124.99 137.42L139.14 110.13C139.19 110.04 139.28 109.97 139.39 109.96C139.49 109.94 139.59 109.98 139.67 110.05L149.97 121.11C150.03 121.18 150.06 121.27 150.05 121.36C149.1 132.75 142.01 142.73 131.55 147.38C131.51 147.4 131.47 147.41 131.43 147.4Z" fill="#231F20" fill-opacity="1.000000" fill-rule="nonzero"/>
	<path id="Path" d="M163.36 163.96L194.51 163.36L194.08 124.18L148.34 125.83L141.97 163.96L163.36 163.96Z" fill="#231F20" fill-opacity="1.000000" fill-rule="nonzero"/>
	<path id="Shape" d="M163.368 164.273L141.974 164.273C141.882 164.273 141.795 164.232 141.737 164.161C141.676 164.094 141.651 164.002 141.669 163.913L148.035 125.786C148.056 125.64 148.179 125.53 148.327 125.525L194.072 123.878C194.155 123.879 194.234 123.91 194.296 123.965C194.36 124.022 194.396 124.104 194.396 124.189L194.825 163.335C194.826 163.417 194.795 163.497 194.738 163.556C194.681 163.616 194.603 163.65 194.52 163.652L163.368 164.273ZM163.362 163.652L142.341 163.652L148.601 126.134L193.779 124.506L194.203 163.03L163.362 163.652Z" clip-rule="evenodd" fill="#231F20" fill-opacity="1.000000" fill-rule="evenodd"/>
	<path id="Path" d="M200.51 80.73C197.73 76.94 191.06 74.95 186.56 74.23C182.24 73.55 177.91 74.23 173.56 73.86C169.59 73.63 165.6 74.02 161.74 75.02C147.25 79.02 133.77 99.97 133.77 99.97L148.55 100.75C148.55 100.75 146.4 116.18 140.24 149.98C165.9 150.9 195.77 153.44 195.77 153.44C195.77 153.44 195.9 146.37 196.23 139.4C198.54 137.25 198.46 133.81 198.88 131.81C199.43 129.25 198.32 101.37 198.32 101.37L201.69 100.13C201.69 100.13 201.73 82.35 200.51 80.73Z" fill="#E7816B" fill-opacity="1.000000" fill-rule="nonzero"/>
	<path id="Path" d="M166 80.33L154.74 154.27L168.18 155.62L183.47 80.18L166 80.33Z" fill="#231F20" fill-opacity="1.000000" fill-rule="nonzero"/>
	<path id="Shape" d="M168.185 155.934L168.154 155.934L154.706 154.586C154.621 154.576 154.542 154.534 154.488 154.468C154.437 154.401 154.416 154.315 154.432 154.232L165.689 80.2901C165.713 80.1405 165.842 80.0302 165.994 80.0291L183.462 79.8738C183.556 79.8708 183.646 79.9123 183.705 79.9857C183.766 80.0577 183.791 80.1537 183.773 80.2466L168.49 155.68C168.462 155.827 168.334 155.934 168.185 155.934ZM167.954 155.288L155.116 154.002L166.287 80.6443L183.088 80.4952L167.954 155.288Z" clip-rule="evenodd" fill="#231F20" fill-opacity="1.000000" fill-rule="evenodd"/>
	<path id="Path" d="M167.99 71.06L166.06 80.33C166.06 80.33 168.12 86.49 174.36 85.84C178.09 85.42 181.44 83.34 183.47 80.18L185.69 63.14C185.69 63.14 181.52 60.15 184.15 50.62C178.92 52.07 173.39 52.1 168.15 50.69C168.15 50.69 163.99 60.86 164.09 65.6C164.2 70.34 167.99 71.06 167.99 71.06Z" fill="#FFFFFF" fill-opacity="1.000000" fill-rule="nonzero"/>
	<path id="Shape" d="M173.462 86.2178C167.761 86.2178 165.783 80.5013 165.758 80.4392C165.742 80.3844 165.742 80.3262 165.758 80.2714L167.625 71.3052C166.666 71.007 163.891 69.7891 163.779 65.6508C163.679 60.8664 167.687 50.993 167.861 50.5767C167.922 50.4267 168.084 50.3444 168.241 50.384C173.424 51.763 178.882 51.7395 184.053 50.3157C184.166 50.2776 184.29 50.3038 184.377 50.384C184.463 50.4652 184.496 50.5873 184.464 50.7009C181.931 59.9219 185.845 62.8609 185.883 62.8858C185.981 62.9537 186.032 63.0721 186.013 63.1902L183.798 80.2279C183.792 80.2699 183.777 80.3101 183.754 80.346C181.693 83.6035 178.257 85.7447 174.42 86.1619C174.102 86.1995 173.782 86.2181 173.462 86.2178ZM174.333 85.5281C168.726 86.106 166.666 81.0481 166.399 80.3149L168.309 71.1623C168.327 71.0761 168.309 70.9864 168.26 70.9137C168.212 70.8437 168.138 70.7964 168.054 70.7833C167.905 70.7522 164.507 70.0998 164.414 65.657C164.329 61.5209 167.573 53.1101 168.3 51.2246C168.317 51.1812 168.333 51.1412 168.346 51.1048C173.383 52.37 178.656 52.37 183.692 51.1048C181.583 59.4 184.601 62.6807 185.347 63.3021L183.163 80.0788C181.17 83.1082 177.938 85.1029 174.333 85.5281Z" clip-rule="evenodd" fill="#231F20" fill-opacity="1.000000" fill-rule="evenodd"/>
	<path id="Path" d="M182.18 62.37C182.5 61.57 183.07 60.89 183.81 60.44C184.51 60.05 185.27 59.79 186.06 59.66C186.49 59.55 186.94 59.52 187.37 59.6C187.67 59.69 187.94 59.84 188.19 60.03C188.79 60.44 189.23 61.05 189.43 61.75C189.52 62.33 189.47 62.93 189.28 63.49C189.12 64.11 188.88 64.71 188.56 65.26C187.9 66.37 186.83 67.17 185.57 67.48C184.32 67.79 182.99 67.58 181.89 66.91L182.18 62.37Z" fill="#FFFFFF" fill-opacity="1.000000" fill-rule="nonzero"/>
	<path id="Path" d="M184.43 67.93C183.48 67.93 182.55 67.67 181.73 67.18C181.58 67.09 181.54 66.89 181.63 66.74C181.67 66.67 181.74 66.61 181.83 66.59C181.91 66.57 182 66.59 182.07 66.63C183.1 67.25 184.33 67.44 185.51 67.17C186.68 66.88 187.68 66.13 188.31 65.1C188.61 64.57 188.84 64 188.98 63.4C189.16 62.9 189.21 62.35 189.13 61.82C188.95 61.2 188.55 60.65 188.01 60.29C187.8 60.12 187.56 59.99 187.3 59.91C186.91 59.85 186.52 59.87 186.14 59.97C185.37 60.1 184.63 60.35 183.95 60.71C183.27 61.13 182.75 61.75 182.46 62.49C182.39 62.66 182.2 62.75 182.03 62.68C181.85 62.62 181.77 62.42 181.83 62.25C182.18 61.39 182.79 60.66 183.59 60.17C184.34 59.76 185.16 59.49 186 59.36C186.48 59.23 186.97 59.21 187.45 59.31C187.79 59.41 188.11 59.57 188.38 59.79C189.05 60.24 189.54 60.92 189.76 61.7C189.85 62.33 189.8 62.96 189.6 63.56C189.44 64.22 189.18 64.84 188.85 65.43C188.14 66.61 187 67.46 185.66 67.8C185.26 67.89 184.85 67.94 184.43 67.93Z" fill="#231F20" fill-opacity="1.000000" fill-rule="nonzero"/>
	<path id="Path" d="M167.25 75.7C169.47 76.26 171.83 75.83 173.71 74.52C176.72 72.31 176.69 70.79 176.69 70.79C176.69 70.79 172.08 72.57 168.22 71.24L167.25 75.7Z" fill="#231F20" fill-opacity="1.000000" fill-rule="nonzero"/>
	<path id="Shape" d="M169.224 76.2575C168.529 76.2632 167.837 76.1775 167.164 76.0027C167.009 75.9575 166.917 75.7995 166.953 75.6423L167.923 71.1748C167.94 71.0876 167.995 71.0125 168.073 70.9697C168.152 70.9327 168.243 70.9327 168.322 70.9697C172.024 72.2124 176.536 70.541 176.579 70.5223C176.667 70.476 176.772 70.476 176.859 70.5223C176.945 70.576 176.997 70.67 176.996 70.7709C176.996 70.8392 176.996 72.4796 173.885 74.7538C172.532 75.7404 170.899 76.2674 169.224 76.2575ZM173.53 74.2754C171.808 75.4691 169.67 75.9028 167.618 75.4746L168.452 71.647C171.539 72.5666 174.943 71.6905 176.25 71.2742C176.019 71.8583 175.366 72.927 173.53 74.2754Z" clip-rule="evenodd" fill="#231F20" fill-opacity="1.000000" fill-rule="evenodd"/>
	<path id="Path" d="M173.56 57.2C173.56 57.2 169.61 61.35 170.22 62.3C170.83 63.24 173.02 63.09 173.02 63.09L173.56 57.2Z" fill="#FFFFFF" fill-opacity="1.000000" fill-rule="nonzero"/>
	<path id="Path" d="M172.55 63.38C171.81 63.38 170.48 63.27 169.96 62.46C169.29 61.43 172.09 58.28 173.33 56.98C173.39 56.93 173.47 56.89 173.55 56.89C173.64 56.89 173.72 56.93 173.77 56.98C173.83 57.04 173.87 57.12 173.87 57.2C173.87 57.28 173.83 57.36 173.77 57.42C171.76 59.54 170.21 61.77 170.47 62.14C170.88 62.76 172.46 62.81 172.96 62.76C173.13 62.75 173.28 62.87 173.3 63.04C173.3 63.12 173.28 63.21 173.22 63.27C173.17 63.33 173.09 63.37 173.01 63.38C172.98 63.37 172.8 63.38 172.55 63.38Z" fill="#231F20" fill-opacity="1.000000" fill-rule="nonzero"/>
	<ellipse id="Oval" rx="1.112466" ry="0.790145" transform="matrix(0.373312 -0.927706 0.927706 0.373312 178.918 57.9748)" fill="#231F20" fill-opacity="1.000000"/>
	<ellipse id="Oval" rx="1.112466" ry="0.790145" transform="matrix(0.373312 -0.927706 0.927706 0.373312 170.719 56.6355)" fill="#231F20" fill-opacity="1.000000"/>
	<path id="Path" d="M173.01 68.63C172.69 68.63 172.37 68.59 172.06 68.51C167.76 67.47 167.86 62.45 167.86 62.4C167.87 62.23 168.01 62.1 168.18 62.1C168.26 62.11 168.34 62.14 168.4 62.2C168.45 62.26 168.48 62.34 168.48 62.42C168.48 62.61 168.4 66.99 172.21 67.91C176.03 68.83 177.91 62.81 177.93 62.74C177.96 62.63 178.05 62.54 178.16 62.51C178.27 62.48 178.39 62.52 178.47 62.61C178.55 62.7 178.57 62.82 178.52 62.93C178.44 63.18 176.69 68.63 173.01 68.63Z" fill="#231F20" fill-opacity="1.000000" fill-rule="nonzero"/>
	<path id="Path" d="M36.99 82.98L60.26 109L92.8 120.37L88.64 128.96C88.64 128.96 67.52 125.77 59.2 124.84C50.88 123.91 40.36 111.43 40.36 111.43L36.99 82.98Z" fill="#FFFFFF" fill-opacity="1.000000" fill-rule="nonzero"/>
	<path id="Shape" d="M88.6497 129.266L88.6061 129.266C88.3945 129.266 67.386 126.072 59.1655 125.146C50.8206 124.208 40.559 112.147 40.1296 111.631C40.0878 111.587 40.0615 111.53 40.0549 111.47L36.6884 82.9806C36.6774 82.8479 36.749 82.7221 36.8688 82.6637C36.9926 82.607 37.1387 82.6372 37.2297 82.7382L60.4412 108.705L92.9124 120.045C92.9943 120.075 93.0598 120.138 93.0928 120.219C93.1301 120.299 93.1301 120.393 93.0928 120.473L88.9297 129.085C88.8804 129.196 88.7705 129.266 88.6497 129.266ZM59.234 124.525C51.4553 123.648 41.5298 112.302 40.6648 111.296L37.4226 83.9126L60.043 109.196C60.0781 109.236 60.1232 109.266 60.1736 109.283L92.3896 120.535L88.4817 128.613C86.1605 128.253 67.0126 125.401 59.234 124.525Z" clip-rule="evenodd" fill="#231F20" fill-opacity="1.000000" fill-rule="evenodd"/>
	<path id="Path" d="M48.29 70.07C47.97 67.89 47.09 65.83 46.42 63.74C44.74 58.66 44.5 53.42 42.74 48.37C40.48 41.86 36.14 37.13 28.56 37.39C25.43 37.39 22.62 39.27 21.42 42.15C17.83 40.18 13.04 44.2 12.87 47.88C12.63 53.3 12.97 57.93 10.61 63.07C8.82 66.97 6.04 70.62 5.81 74.91C5.58 79.2 8.01 83.21 11.5 85.57C14.98 87.94 19.38 88.73 23.58 88.42C27.78 88.11 31.84 86.77 35.74 85.16C37.66 84.42 39.51 83.49 41.24 82.39C45.21 79.74 49.05 75.12 48.29 70.07Z" fill="#FFFFFF" fill-opacity="1.000000" fill-rule="nonzero"/>
	<path id="Shape" d="M21.853 88.7965C18.1277 88.8793 14.4629 87.847 11.3301 85.8326C7.59631 83.2788 5.28137 78.9977 5.50537 74.9029C5.67346 71.7402 7.20422 68.9006 8.6853 66.1542C9.25159 65.1041 9.83655 64.0229 10.3344 62.9418C12.251 58.7476 12.3568 55.0194 12.4751 50.6699C12.4751 49.7565 12.5249 48.8058 12.5684 47.8676C12.668 45.7301 14.2672 43.3814 16.4702 42.1511C17.9099 41.2369 19.7064 41.0837 21.2805 41.741C22.5831 38.9132 25.4128 37.0991 28.5302 37.0932C35.3754 36.8695 40.391 40.7157 43.0233 48.2777C43.8535 50.869 44.4961 53.5166 44.9462 56.2C45.3693 58.7212 45.9575 61.212 46.7073 63.6563C46.8816 64.172 47.062 64.694 47.2487 65.2097C47.8578 66.774 48.3162 68.3927 48.6177 70.0439C49.3894 75.2944 45.4067 79.9856 41.4178 82.6637C39.6597 83.7811 37.7938 84.7199 35.8483 85.466C32.5688 86.8144 28.219 88.4051 23.5892 88.7468C23.0167 88.7779 22.4318 88.7965 21.853 88.7965ZM16.7689 42.6854C17.5559 42.2207 18.4496 41.966 19.3638 41.946L19.37 41.9709C20.0372 41.9654 20.6948 42.1301 21.2805 42.4493C21.3593 42.4863 21.4506 42.4863 21.5294 42.4493C21.6089 42.422 21.6741 42.3638 21.7098 42.2878C22.8573 39.5222 25.557 37.7161 28.5551 37.7084C35.2261 37.4722 39.8683 41.0948 42.457 48.4765C43.2715 51.041 43.8955 53.6619 44.324 56.3181C44.755 58.8603 45.3516 61.3718 46.1099 63.8365C46.2842 64.3647 46.4708 64.8866 46.6512 65.4023C47.2472 66.9286 47.6971 68.5076 47.9955 70.1185C48.7297 75.0831 44.8965 79.5818 41.0693 82.1355C39.3496 83.2284 37.5258 84.1483 35.6243 84.882C32.3884 86.2117 28.0697 87.7961 23.5519 88.113C19.0341 88.4299 14.821 87.4544 11.6724 85.3231C8.08789 82.8874 5.90991 78.8113 6.11523 74.934C6.28333 71.9142 7.78296 69.1305 9.22668 66.4462C9.79919 65.3899 10.3904 64.2963 10.8944 63.2027C12.8671 58.9029 12.9729 54.9138 13.0912 50.6823C13.116 49.7565 13.1409 48.8431 13.1844 47.8924C13.2716 45.96 14.7465 43.8163 16.7689 42.6854Z" clip-rule="evenodd" fill="#231F20" fill-opacity="1.000000" fill-rule="evenodd"/>
	<path id="Path" d="M48.41 86.88C48.15 85.85 47.87 84.83 47.55 83.81C46.73 81.1 45.76 77.16 43.82 75C40.67 71.51 33.57 71.4 29.25 71.37C22.58 71.34 15.75 72.9 10.29 76.74C1.89 82.64 0.34 91.21 1.3 100.77C2.41 111.45 3.79 122.12 5.29 132.76C5.44 133.85 7.24 150.11 8.05 150.12C8.1 150.12 63.43 150.16 61.66 151.47C59.17 142.84 57.31 134.07 55.3 125.37C54.88 123.51 54.13 121.82 53.67 120C53 117.38 53.3 114.5 53.04 111.82C52.5 105.61 51.18 99.49 49.88 93.4C49.43 91.21 48.96 89.03 48.41 86.88Z" fill="#E7816B" fill-opacity="1.000000" fill-rule="nonzero"/>
	<path id="Path" d="M64.09 164.16L57.75 136.38L6.53 140.59L5.88 164.16L64.09 164.16Z" fill="#231F20" fill-opacity="1.000000" fill-rule="nonzero"/>
	<path id="Shape" d="M5.88489 164.478L64.094 164.478C64.1774 164.468 64.2534 164.426 64.3055 164.36C64.3632 164.286 64.3859 164.191 64.3678 164.099L58.0266 136.312C57.9863 136.164 57.8497 136.064 57.6969 136.07L6.4823 140.282C6.32397 140.298 6.20154 140.428 6.19604 140.587L5.57373 164.161C5.573 164.244 5.60413 164.324 5.66089 164.385C5.72021 164.444 5.80078 164.478 5.88489 164.478ZM63.7144 163.857L6.22095 163.857L6.82458 140.879L57.4915 136.716L63.7144 163.857Z" clip-rule="evenodd" fill="#231F20" fill-opacity="1.000000" fill-rule="evenodd"/>
	<path id="Path" d="M33.71 94.78C33.88 94.85 34.06 94.89 34.24 94.91C35.41 94.99 36.32 93.91 36.8 92.85C37.87 90.48 37.87 87.78 37.69 85.2C37.65 83.67 37.32 82.17 36.72 80.76C36.15 79.67 35.38 78.7 34.46 77.89C32.79 76.35 30.78 75.07 28.53 74.78C26.28 74.49 23 75.71 22.31 78.17C21.59 80.83 24.39 83.51 25.74 85.47C27.7 88.3 29.84 90.99 32.15 93.54C32.57 94.07 33.1 94.49 33.71 94.78Z" fill="#231F20" fill-opacity="1.000000" fill-rule="nonzero"/>
	<path id="Shape" d="M34.3859 95.2214L34.2241 95.2214C34.0114 95.2006 33.8022 95.1526 33.6018 95.0785C32.9557 94.7726 32.3876 94.3244 31.9403 93.7674C29.6255 91.2143 27.4763 88.5163 25.5057 85.6897C25.2444 85.3107 24.9208 84.8944 24.5724 84.447C23.166 82.6513 21.4111 80.4082 22.0334 78.134C22.7241 75.5864 25.9725 74.2008 28.5737 74.5115C30.6085 74.7476 32.6621 75.8163 34.6721 77.6804C35.6282 78.5145 36.4197 79.5198 37.0057 80.6443C37.6233 82.0859 37.9611 83.6314 38.0013 85.1989C38.1819 87.6843 38.213 90.5115 37.0867 92.9907C36.8439 93.5437 35.9479 95.2214 34.3859 95.2214ZM34.2739 94.5938C34.1199 94.5823 33.9686 94.5467 33.8258 94.4882C33.2677 94.2097 32.782 93.8056 32.407 93.3076C30.1063 90.7708 27.9735 88.0871 26.0223 85.2734C25.7423 84.9006 25.4125 84.4781 25.064 84.0307C23.7385 82.3468 22.0956 80.2404 22.6309 78.2645C23.2281 76.0587 26.2028 74.8284 28.499 75.0956C30.4032 75.3192 32.3385 76.3321 34.249 78.1029C35.1487 78.8859 35.8938 79.83 36.4457 80.8866C37.0267 82.2654 37.3434 83.7408 37.3792 85.2361C37.5533 87.6222 37.5845 90.3748 36.5204 92.7297C36.0909 93.6742 35.2509 94.6808 34.2739 94.5938Z" clip-rule="evenodd" fill="#231F20" fill-opacity="1.000000" fill-rule="evenodd"/>
	<rect id="Rectangle" x="60.584351" y="45.270264" width="87.481674" height="93.253593" fill="#FFFFFF" fill-opacity="1.000000"/>
	<path id="Shape" d="M60.5844 138.828L148.06 138.828C148.232 138.828 148.371 138.689 148.371 138.518L148.371 45.2703C148.371 45.0987 148.232 44.9596 148.06 44.9596L60.5844 44.9596C60.4125 44.9596 60.2732 45.0987 60.2732 45.2703L60.2732 138.518C60.2732 138.689 60.4125 138.828 60.5844 138.828ZM147.749 138.207L60.8955 138.207L60.8955 45.5809L147.749 45.5809L147.749 138.207Z" clip-rule="evenodd" fill="#231F20" fill-opacity="1.000000" fill-rule="evenodd"/>
	<rect id="Rectangle" x="66.228516" y="52.440796" width="76.180870" height="68.455147" fill="#FFFFFF" fill-opacity="1.000000"/>
	<path id="Shape" d="M142.416 121.207L66.2285 121.207C66.0566 121.207 65.9174 121.068 65.9174 120.896L65.9174 52.4408C65.9174 52.2692 66.0566 52.1301 66.2285 52.1301L142.416 52.1301C142.587 52.1301 142.727 52.2692 142.727 52.4408L142.727 120.884C142.73 120.968 142.699 121.05 142.64 121.111C142.581 121.172 142.5 121.207 142.416 121.207ZM142.104 120.585L66.5397 120.585L66.5397 52.7515L142.104 52.7515L142.104 120.585Z" clip-rule="evenodd" fill="#D1D3D4" fill-opacity="1.000000" fill-rule="evenodd"/>
	<path id="Path" d="M133.89 76.35C132.79 77.55 131.75 78.83 130.6 79.96C127.61 83 124.57 86 121.55 89.02C121.45 89.13 121.37 89.27 121.24 89.33C120.7 89.56 120 90.08 119.64 89.9C119.14 89.52 118.84 88.94 118.81 88.32C118.73 85.99 118.78 83.66 118.78 81.17C117.8 81.17 116.87 81.13 115.94 81.17C112.44 81.34 109.07 82.03 106.02 83.85C102.25 85.94 99.87 89.86 99.75 94.16C99.78 95.32 99.97 96.47 100.31 97.58C100.44 98.16 100.77 98.82 100.03 99.05C99.48 99.05 98.97 98.77 98.67 98.3C97.72 96.43 96.96 94.46 96.4 92.43C94.31 82.96 99.52 74.28 108.93 71.31C111.65 70.44 114.48 70 117.33 70L118.78 70C118.78 68.17 118.78 66.44 118.78 64.71C118.76 63.88 118.81 63.04 118.94 62.22C119.13 61.28 119.73 61.05 120.57 61.52C120.91 61.73 121.22 61.99 121.49 62.28C125.29 66.07 129.08 69.87 132.87 73.67C133.24 74.11 133.58 74.57 133.88 75.06L133.89 76.35Z" fill="#E7816B" fill-opacity="1.000000" fill-rule="nonzero"/>
	<path id="Path" d="M86.51 110.5C84.38 110.1 82.44 109.01 80.99 107.4C79.6 105.79 78.84 103.74 78.84 101.62C78.84 93.37 78.79 85.13 78.84 76.89C78.83 74.54 79.76 72.29 81.42 70.63C83.08 68.97 85.34 68.05 87.69 68.06C89.22 68.03 90.75 68.03 92.29 68.06C93.54 68.06 94.32 68.8 94.31 69.88C94.3 70.96 93.53 71.58 92.32 71.59C90.82 71.59 89.32 71.59 87.82 71.59C86.38 71.55 84.98 72.09 83.95 73.1C82.92 74.11 82.35 75.5 82.37 76.94C82.34 85.23 82.34 93.51 82.37 101.8C82.37 103.2 82.93 104.55 83.93 105.54C84.93 106.52 86.29 107.07 87.69 107.05C95.88 107.05 109.98 107.05 118.19 107.05C119.65 107.12 121.07 106.57 122.12 105.54C123.16 104.52 123.72 103.1 123.68 101.64C123.72 99.05 123.68 96.46 123.68 93.87C123.68 92.63 124.22 91.97 125.23 91.83C126.08 91.71 127.1 92.3 127.1 93.14C127.1 96.6 127.35 100.1 126.93 103.51C126.47 107.24 123.57 109.73 119.83 110.43C119.7 110.47 119.56 110.52 119.43 110.58L86.51 110.5Z" fill="#E7816B" fill-opacity="1.000000" fill-rule="nonzero"/>
	<path id="Path" d="M141.84 127.79L77.33 127.79C77.16 127.79 77.02 127.66 77.02 127.48C77.02 127.31 77.16 127.17 77.33 127.17L141.84 127.17C142.02 127.17 142.16 127.31 142.16 127.48C142.16 127.66 142.02 127.79 141.84 127.79Z" fill="#D1D3D4" fill-opacity="1.000000" fill-rule="nonzero"/>
	<path id="Path" d="M125.81 132.64L77.33 132.64C77.16 132.64 77.02 132.5 77.02 132.32C77.02 132.15 77.16 132.01 77.33 132.01L125.81 132.01C125.98 132.01 126.12 132.15 126.12 132.32C126.12 132.49 125.98 132.63 125.81 132.64Z" fill="#D1D3D4" fill-opacity="1.000000" fill-rule="nonzero"/>
	<ellipse id="Oval" cx="69.819092" cy="128.743713" rx="3.584396" ry="3.579029" fill="#FFFFFF" fill-opacity="1.000000"/>
	<path id="Shape" d="M69.8192 132.64C68.2406 132.642 66.8159 131.695 66.2101 130.239C65.6041 128.783 65.9364 127.107 67.0519 125.991C68.1672 124.876 69.8459 124.541 71.3047 125.144C72.7634 125.746 73.7147 127.167 73.7147 128.744C73.7147 130.893 71.9717 132.636 69.8192 132.64ZM66.7844 127.494C67.2936 126.27 68.4917 125.473 69.8192 125.475C71.6256 125.479 73.0891 126.94 73.0925 128.744C73.095 130.069 72.2969 131.266 71.0709 131.774C69.8448 132.282 68.4329 132.003 67.494 131.065C66.5553 130.128 66.2751 128.718 66.7844 127.494Z" clip-rule="evenodd" fill="#D1D3D4" fill-opacity="1.000000" fill-rule="evenodd"/>
	<path id="Path" d="M40.2 51.21C40.2 51.21 43.31 58.45 42.41 64.16C41.96 67.41 39.63 70.1 36.47 71L37.09 80.97C37.09 80.97 37.47 86.06 31.16 85.68C27.45 85.45 24.12 83.32 22.35 80.05L20.48 61.77C20.48 61.77 27.32 57.24 26.26 50.7C26.26 50.7 34.95 54.22 40.2 51.21Z" fill="#FFFFFF" fill-opacity="1.000000" fill-rule="nonzero"/>
	<path id="Shape" d="M31.8533 86.0315L31.1812 86.0315C27.3612 85.7706 23.9392 83.5795 22.1082 80.2218C22.0913 80.1888 22.0808 80.153 22.077 80.1161L20.1729 61.8109C20.1617 61.6959 20.2142 61.584 20.3098 61.5189C20.3782 61.4754 26.9558 57.014 25.9602 50.7507C25.9408 50.6402 25.9838 50.528 26.0721 50.4587C26.1604 50.3891 26.2793 50.3725 26.3833 50.4152C26.3892 50.4152 26.4398 50.4334 26.5306 50.4659C27.6876 50.8809 35.3627 53.6339 40.0364 50.9433C40.118 50.9092 40.21 50.9092 40.2915 50.9433C40.3762 50.9713 40.4445 51.0349 40.4781 51.1173C40.6089 51.4156 43.6519 58.5053 42.7185 64.2404C42.2562 67.5192 39.9613 70.2473 36.8066 71.268L37.429 80.9923C37.4833 82.313 37.0085 83.6009 36.1097 84.5713C35.1389 85.5344 33.7076 86.0315 31.8533 86.0315ZM31.2185 85.3915C27.6396 85.1532 24.4277 83.1142 22.6931 79.9795L20.845 61.9538C21.8406 61.2331 27.2483 57.0265 26.6696 51.1981C28.5675 51.894 35.4252 54.0812 40.0675 51.6766C40.6462 53.1243 42.9301 59.2509 42.1398 64.141C41.7307 67.2802 39.4894 69.875 36.4396 70.7399C36.29 70.7732 36.187 70.9103 36.1969 71.063L36.8191 81.0047C36.8561 82.1506 36.443 83.2656 35.6678 84.1115C34.7158 85.0808 33.2161 85.5096 31.2185 85.3915Z" clip-rule="evenodd" fill="#231F20" fill-opacity="1.000000" fill-rule="evenodd"/>
	<path id="Path" d="M23.85 60.26C23.85 60.26 20.29 53.54 17.12 58.12C13.96 62.71 19.32 67.17 22.37 66.55L23.85 60.26Z" fill="#FFFFFF" fill-opacity="1.000000" fill-rule="nonzero"/>
	<path id="Path" d="M21.76 66.93C20.01 66.93 17.92 65.69 16.78 63.93C15.52 62.12 15.56 59.71 16.9 57.95C17.74 56.71 18.7 56.15 19.75 56.22C22.16 56.36 24.11 59.95 24.16 60.12C24.21 60.26 24.15 60.43 24.01 60.5C23.87 60.57 23.7 60.53 23.61 60.4C23.61 60.4 21.74 56.97 19.66 56.84C18.83 56.79 18.07 57.28 17.37 58.31C16.19 59.86 16.14 61.99 17.26 63.59C18.43 65.38 20.7 66.58 22.3 66.25C22.47 66.22 22.63 66.33 22.66 66.5C22.68 66.58 22.66 66.67 22.62 66.73C22.57 66.8 22.5 66.85 22.42 66.86C22.2 66.91 21.98 66.93 21.76 66.93Z" fill="#231F20" fill-opacity="1.000000" fill-rule="nonzero"/>
	<path id="Path" d="M37.59 64.12C37.08 64.12 36.57 64.07 36.07 63.97C35.99 63.96 35.92 63.91 35.87 63.85C35.83 63.78 35.81 63.69 35.83 63.61C35.85 63.53 35.89 63.46 35.96 63.41C36.03 63.37 36.12 63.35 36.2 63.37C36.2 63.37 38.21 63.76 39.17 63.18C39.3 62.4 37.39 59.8 35.99 58.21C35.94 58.15 35.91 58.07 35.92 57.98C35.92 57.9 35.96 57.83 36.02 57.77C36.15 57.65 36.34 57.65 36.47 57.77C37.09 58.46 40.01 61.95 39.8 63.23C39.77 63.43 39.66 63.61 39.48 63.71C38.9 64.01 38.24 64.15 37.59 64.12Z" fill="#231F20" fill-opacity="1.000000" fill-rule="nonzero"/>
	<path id="Path" d="M36.47 71.01C36.47 71.01 31.18 72.03 28.06 71.45C28.06 71.45 31.92 79.08 36.99 78.71L36.47 71.01Z" fill="#231F20" fill-opacity="1.000000" fill-rule="nonzero"/>
	<path id="Shape" d="M36.6324 79.0411C31.6167 79.0411 27.9203 71.9017 27.7959 71.5848C27.7313 71.4845 27.7313 71.3558 27.7959 71.2555C27.8812 71.1632 28.0138 71.1313 28.132 71.1747C31.15 71.7402 36.3649 70.7522 36.4208 70.7398C36.5088 70.7261 36.5986 70.7485 36.6698 70.8019C36.7379 70.8573 36.7806 70.9381 36.788 71.0256L37.3107 78.7242C37.3214 78.8936 37.194 79.0403 37.0244 79.0536Q36.8315 79.0411 36.6324 79.0411ZM36.6387 78.4198C32.7368 78.4198 29.6254 73.511 28.6484 71.852C31.3429 72.1689 35.0455 71.5848 36.1594 71.386L36.6387 78.4198Z" clip-rule="evenodd" fill="#231F20" fill-opacity="1.000000" fill-rule="evenodd"/>
	<ellipse id="Oval" rx="0.784070" ry="1.373233" transform="matrix(0.992862 -0.11927 0.11927 0.992862 32.9845 57.0293)" fill="#231F20" fill-opacity="1.000000"/>
	<ellipse id="Oval" rx="0.784070" ry="1.373233" transform="matrix(0.992862 -0.11927 0.11927 0.992862 39.8073 56.7836)" fill="#231F20" fill-opacity="1.000000"/>
	<path id="Path" d="M34.44 67.11C33.98 67.1 33.54 67.01 33.12 66.82C31.61 66.16 30.63 64.33 30.23 61.35C30.21 61.17 30.33 61.02 30.5 60.99C30.67 60.97 30.83 61.09 30.85 61.26C31.23 64 32.1 65.68 33.38 66.23C34.95 66.93 36.73 65.71 36.75 65.7C36.84 65.63 36.96 65.62 37.06 65.66C37.17 65.71 37.24 65.81 37.25 65.93C37.25 66.04 37.2 66.15 37.1 66.21C36.31 66.75 35.39 67.06 34.44 67.11Z" fill="#231F20" fill-opacity="1.000000" fill-rule="nonzero"/>
	<path id="Path" d="M118.04 138.84C117.94 138.15 117.87 137.46 117.84 136.76C117.8 135.32 118.02 133.88 118.51 132.52C118.66 131.91 118.99 131.37 119.46 130.96C119.96 130.56 120.69 130.61 121.13 131.08C121.37 131.57 121.39 132.15 121.19 132.67C120.87 134.11 120.79 135.6 120.97 137.07C121.21 135.09 121.47 133.04 122.55 131.37C122.77 130.98 123.09 130.66 123.47 130.42C123.87 130.19 124.36 130.19 124.75 130.42C125.3 130.83 125.26 131.67 125.19 132.32C125.02 134.06 125.04 135.82 125.27 137.55C125.15 136.03 125.26 134.49 125.6 133C125.83 132.03 126.27 130.95 127.22 130.64C127.42 130.57 127.64 130.56 127.84 130.6C128.28 130.75 128.6 131.13 128.67 131.58C128.74 132.02 128.74 132.48 128.67 132.92C128.49 134.67 128.55 136.44 128.83 138.17C128.61 136.65 128.67 135.1 129 133.6C129.09 133 129.33 132.43 129.7 131.95C130.08 131.45 130.74 131.26 131.33 131.47C131.75 131.69 132.04 132.1 132.12 132.57C132.19 133.03 132.21 133.5 132.17 133.97C132.13 135.74 132.45 137.5 133.13 139.14C133.69 140.5 134.42 142.01 134.29 143.53C134.06 145.15 132.95 146.5 131.42 147.06C129.9 147.58 128.26 147.66 126.7 147.28C121.55 146.26 117.3 143.81 115.5 138.9L118.04 138.84Z" fill="#FFFFFF" fill-opacity="1.000000" fill-rule="nonzero"/>
	<path id="Path" d="M128.88 147.85C128.13 147.85 127.39 147.77 126.65 147.62C120.73 146.45 116.88 143.56 115.2 139.03C115.14 138.86 115.23 138.67 115.4 138.61C115.57 138.55 115.76 138.64 115.82 138.81C117.41 143.11 121.11 145.86 126.8 146.99C128.3 147.36 129.87 147.29 131.33 146.78C132.75 146.27 133.78 145.02 134 143.53C134.12 142.25 133.57 140.96 133.05 139.72L132.87 139.28C132.18 137.6 131.84 135.8 131.88 133.98L131.88 133.77C131.91 133.4 131.9 133.03 131.84 132.66C131.77 132.29 131.55 131.97 131.22 131.78C130.76 131.65 130.27 131.8 129.97 132.17C129.64 132.62 129.42 133.14 129.35 133.69C129.02 135.15 128.96 136.66 129.18 138.15C129.21 138.32 129.09 138.48 128.91 138.51C128.75 138.53 128.6 138.43 128.57 138.28C128.27 136.51 128.22 134.72 128.4 132.94L128.4 132.83C128.46 132.46 128.46 132.07 128.4 131.7C128.35 131.36 128.11 131.07 127.78 130.96C127.63 130.93 127.46 130.94 127.31 130.99C126.66 131.21 126.19 131.93 125.91 133.12C125.57 134.58 125.47 136.08 125.59 137.57C125.57 137.71 125.45 137.83 125.31 137.84C125.16 137.86 125.02 137.77 124.97 137.64C124.74 135.88 124.71 134.1 124.89 132.34C124.95 131.72 124.98 131.03 124.58 130.73C124.29 130.56 123.93 130.56 123.64 130.73C123.3 130.94 123.02 131.22 122.83 131.57C121.77 133.21 121.53 135.29 121.31 137.16C121.29 137.32 121.15 137.44 120.99 137.44C120.83 137.44 120.7 137.32 120.67 137.16C120.49 135.66 120.56 134.13 120.89 132.65C121.07 132.23 121.07 131.75 120.89 131.32C120.79 131.19 120.63 131.1 120.46 131.08C120.19 131.03 119.91 131.1 119.68 131.27C119.26 131.64 118.97 132.13 118.84 132.67C118.36 133.99 118.14 135.39 118.19 136.79C118.19 137.01 118.22 137.2 118.23 137.38C118.25 137.87 118.3 138.36 118.38 138.84C118.38 138.99 118.26 139.12 118.12 139.14C117.97 139.17 117.82 139.09 117.76 138.95C117.68 138.44 117.62 137.94 117.6 137.42C117.6 137.25 117.6 137.05 117.56 136.84C117.5 135.36 117.74 133.89 118.24 132.49C118.41 131.82 118.78 131.22 119.31 130.77C119.67 130.51 120.11 130.4 120.55 130.46C120.89 130.51 121.2 130.69 121.4 130.96C121.71 131.54 121.75 132.22 121.52 132.83C121.52 132.86 121.52 132.89 121.52 132.93C121.72 132.36 121.99 131.81 122.31 131.3C122.57 130.86 122.93 130.5 123.36 130.24C123.86 129.95 124.49 129.97 124.97 130.29C125.6 130.76 125.6 131.63 125.6 132.23C125.82 131.43 126.41 130.77 127.18 130.46C127.45 130.37 127.73 130.35 128 130.42C128.57 130.6 128.98 131.08 129.08 131.66C129.13 131.94 129.15 132.23 129.13 132.52C129.23 132.3 129.37 132.09 129.54 131.9C130.01 131.3 130.82 131.07 131.54 131.34C132.05 131.61 132.41 132.1 132.51 132.67C132.58 133.08 132.61 133.49 132.58 133.91L132.58 134.13C132.55 135.85 132.86 137.57 133.52 139.17L133.7 139.6C134.23 140.84 134.83 142.27 134.7 143.71C134.47 145.45 133.28 146.91 131.63 147.5C130.74 147.8 129.81 147.92 128.88 147.85Z" fill="#231F20" fill-opacity="1.000000" fill-rule="nonzero"/>
	<path id="Path" d="M183.15 104.14L182.2 118.39C182.2 118.39 152.95 95.4 148.06 94.41L148.06 98.44C148.06 98.44 139.92 97.44 139.27 99.06C138.63 100.67 139.73 106.81 141.84 108.05C143.09 108.81 153.6 108.87 153.6 108.87C153.6 108.87 155.09 112.51 169.59 125.85C184.09 139.19 197.73 146.32 198.58 133.83C199.43 121.33 200.51 100.27 200.51 100.27L183.15 104.14Z" fill="#FFFFFF" fill-opacity="1.000000" fill-rule="nonzero"/>
	<path id="Path" d="M193.21 140.61C188.07 140.61 179.59 135.47 169.37 126.07C156.62 114.33 153.9 110.09 153.4 109.17C151.66 109.17 142.93 109.05 141.68 108.32C139.36 106.94 138.28 100.65 138.98 98.92C139.67 97.19 145.77 97.83 147.74 98.04L147.74 94.38C147.74 94.29 147.78 94.2 147.86 94.14C147.93 94.08 148.03 94.05 148.12 94.07C152.75 95 177.99 114.65 181.92 117.73L182.82 104.1C182.8 103.97 182.86 103.83 182.97 103.76C183.09 103.69 183.24 103.7 183.34 103.79C183.45 103.87 183.49 104.02 183.44 104.15L182.52 118.39C182.52 118.51 182.44 118.62 182.33 118.66C182.22 118.71 182.1 118.7 182 118.62C181.72 118.4 154.14 96.75 148.4 94.81L148.4 98.41C148.4 98.5 148.36 98.59 148.29 98.65C148.22 98.72 148.13 98.75 148.04 98.73C144.76 98.33 139.95 98.2 139.59 99.16C139 100.64 140.08 106.62 142.03 107.77C142.9 108.28 149.44 108.51 153.62 108.54C153.75 108.54 153.87 108.62 153.92 108.74C153.92 108.77 155.64 112.55 169.82 125.6C181.46 136.29 190.67 141.38 195.15 139.64C197.02 138.9 198.06 136.93 198.26 133.79C199.1 121.44 200.18 100.44 200.2 100.24C200.2 100.15 200.24 100.07 200.3 100.01C200.36 99.96 200.45 99.93 200.53 99.93C200.62 99.94 200.7 99.97 200.76 100.04C200.81 100.1 200.84 100.18 200.84 100.27C200.84 100.48 199.74 121.49 198.9 133.82C198.67 137.23 197.48 139.41 195.37 140.22C194.69 140.48 193.95 140.62 193.21 140.61Z" fill="#231F20" fill-opacity="1.000000" fill-rule="nonzero"/>
	<path id="Path" d="M182.2 118.36L189.21 123.58L182.2 118.36Z" fill="#FFFFFF" fill-opacity="1.000000" fill-rule="nonzero"/>
	<path id="Path" d="M189.21 123.91C189.14 123.9 189.08 123.88 189.02 123.84L182.01 118.62C181.87 118.51 181.84 118.31 181.95 118.17C182.05 118.03 182.25 118 182.39 118.11L189.41 123.33C189.51 123.41 189.56 123.55 189.51 123.68C189.47 123.81 189.35 123.9 189.21 123.91Z" fill="#231F20" fill-opacity="1.000000" fill-rule="nonzero"/>
	<path id="Path" d="M20 92.63C20 92.63 32 114.88 32.32 115.75C32.43 116.04 57.04 102.88 57.95 101.08C57.65 99.07 57.85 97.01 58.53 95.09C58.92 94.04 59.66 93.91 60.53 93.17C60.42 94.48 60.39 95.8 60.45 97.11C62.11 95.37 63.89 93.76 65.79 92.29C66.2 91.87 66.79 91.67 67.36 91.78C67.62 91.91 67.84 92.11 67.98 92.36C70.54 95.94 68.41 100.25 66.58 103.61C63.13 109.92 57.97 113.84 52.48 118.25C48.82 121.17 45.02 123.9 41.08 126.42C38.04 128.48 34.79 130.24 31.41 131.67C29.38 132.48 26.58 133.54 24.42 132.53C16.61 128.91 7.66 110.43 5.21 102.3L20 92.63Z" fill="#FFFFFF" fill-opacity="1.000000" fill-rule="nonzero"/>
	<path id="Path" d="M26.46 133.25C25.72 133.26 24.99 133.11 24.32 132.81C19.89 130.76 15.48 124.32 12.56 119.26C9.45 113.92 6.89 108.27 4.95 102.39C4.92 102.24 5.01 102.09 5.16 102.04C5.31 101.99 5.47 102.07 5.54 102.21C8.03 110.58 17.05 128.76 24.58 132.25C26.53 133.15 29.09 132.25 31.32 131.39C34.68 129.96 37.9 128.21 40.93 126.16C44.86 123.64 48.66 120.92 52.31 118.01L53.26 117.24C58.33 113.19 63.11 109.35 66.32 103.46C68.26 99.91 70.12 95.86 67.75 92.54C67.63 92.34 67.45 92.18 67.24 92.07C66.85 91.92 66.36 92.24 66 92.53C64.11 93.99 62.34 95.59 60.7 97.32C60.61 97.41 60.49 97.44 60.37 97.4C60.25 97.36 60.17 97.26 60.16 97.14C60.11 96.56 60.12 94.9 60.16 93.83L59.94 93.98C59.43 94.24 59.03 94.69 58.82 95.22C58.17 97.09 57.98 99.09 58.26 101.05C58.28 101.11 58.28 101.18 58.26 101.24C57.74 102.29 50.87 106.25 45.19 109.39C41.95 111.19 32.92 116.09 32.33 116.09C32.21 116.08 32.1 116 32.05 115.88C31.8 115.21 23.89 100.49 19.74 92.81C19.66 92.65 19.72 92.47 19.87 92.38C20.02 92.3 20.21 92.36 20.29 92.51C20.76 93.38 31.23 112.8 32.51 115.4C35.22 114.32 56.29 102.75 57.62 101C57.34 98.96 57.56 96.89 58.25 94.96C58.5 94.31 58.99 93.78 59.6 93.45C59.86 93.28 60.11 93.1 60.34 92.91C60.44 92.83 60.58 92.81 60.7 92.87C60.81 92.94 60.87 93.06 60.85 93.19C60.76 94.24 60.72 95.29 60.75 96.35C62.27 94.79 63.89 93.33 65.61 92C66.12 91.61 66.8 91.18 67.48 91.44C67.8 91.59 68.08 91.83 68.27 92.13C71.06 96.05 68.45 100.83 66.88 103.71C63.61 109.71 58.79 113.58 53.65 117.69L52.7 118.45C49.04 121.38 45.23 124.11 41.28 126.64C38.22 128.71 34.96 130.48 31.56 131.92C29.95 132.67 28.23 133.12 26.46 133.25Z" fill="#231F20" fill-opacity="1.000000" fill-rule="nonzero"/>
	<path id="Path" d="M20 92.92C19.89 92.92 19.79 92.86 19.73 92.76L13.71 82.5C13.62 82.35 13.67 82.16 13.82 82.07C13.97 81.99 14.16 82.04 14.25 82.19L20.29 92.48C20.33 92.55 20.34 92.63 20.32 92.71C20.3 92.79 20.25 92.86 20.17 92.9C20.12 92.92 20.06 92.93 20 92.92Z" fill="#231F20" fill-opacity="1.000000" fill-rule="nonzero"/>
	<path id="Path" d="M183.15 104.46C183.06 104.45 182.98 104.41 182.93 104.35C182.88 104.28 182.85 104.2 182.86 104.11L184.19 89.69C184.2 89.52 184.36 89.39 184.53 89.41C184.62 89.41 184.7 89.45 184.76 89.52C184.81 89.58 184.84 89.67 184.83 89.75L183.49 104.17C183.49 104.26 183.45 104.34 183.38 104.39C183.32 104.45 183.23 104.47 183.15 104.46Z" fill="#231F20" fill-opacity="1.000000" fill-rule="nonzero"/>
</svg>
